<?xml version="1.0" standalone="no"?>
<!DOCTYPE svg PUBLIC "-//W3C//DTD SVG 20010904//EN"
 "http://www.w3.org/TR/2001/REC-SVG-20010904/DTD/svg10.dtd">
<svg version="1.0" xmlns="http://www.w3.org/2000/svg"
 width="3508.000000pt" height="2156.000000pt" viewBox="0 0 3508.000000 2156.000000"
 preserveAspectRatio="xMidYMid meet">
<metadata>
Created by potrace 1.16, written by Peter Selinger 2001-2019
</metadata>
<g transform="translate(0.000000,2156.000000) scale(0.100000,-0.100000)"
fill="#000000" stroke="none">
<path d="M23324 21186 c-104 -206 -196 -389 -204 -407 -8 -17 -50 -100 -92
-183 -42 -83 -132 -259 -199 -391 -140 -277 -253 -498 -399 -780 -56 -110
-139 -271 -184 -357 -141 -273 -233 -451 -265 -508 -16 -30 -55 -104 -85 -165
-56 -110 -137 -264 -224 -425 -63 -117 -145 -273 -181 -345 -17 -33 -53 -100
-80 -150 -28 -49 -65 -119 -83 -155 -51 -97 -130 -245 -160 -298 -15 -26 -34
-61 -43 -79 -8 -18 -48 -92 -88 -165 -41 -73 -91 -167 -111 -208 -21 -41 -43
-81 -49 -88 -5 -7 -24 -41 -41 -75 -27 -52 -264 -480 -358 -645 -15 -26 -38
-71 -52 -100 -14 -29 -34 -65 -44 -80 -11 -15 -33 -52 -49 -82 -64 -118 -225
-404 -249 -442 -14 -22 -28 -47 -32 -56 -7 -17 -84 -153 -194 -340 -31 -53
-73 -126 -93 -162 -36 -63 -110 -190 -228 -388 -31 -53 -69 -117 -82 -142 -14
-25 -50 -83 -80 -130 -30 -47 -60 -96 -67 -110 -7 -14 -31 -54 -53 -90 -59
-92 -120 -192 -170 -280 -42 -73 -69 -115 -92 -144 -13 -16 -23 -32 -23 -36 0
-4 -24 -44 -52 -88 -29 -45 -71 -109 -93 -142 -22 -34 -51 -81 -65 -104 -14
-22 -37 -59 -50 -81 l-25 -40 -5 1740 -5 1740 -22 73 c-23 80 -57 136 -110
182 -57 50 -79 61 -175 86 l-93 24 -1855 0 -1855 0 -93 -24 c-51 -13 -104 -32
-119 -41 -14 -10 -439 -432 -944 -939 l-918 -921 -1 750 0 750 -24 93 c-25 98
-55 152 -113 202 -57 50 -79 61 -175 86 l-93 24 -1853 0 c-1832 0 -1855 0
-1935 -20 -45 -12 -95 -26 -112 -32 -18 -7 -405 -385 -988 -967 l-957 -956 0
810 0 810 -24 93 c-25 96 -36 118 -86 175 -50 58 -104 88 -202 113 l-93 24
-925 0 -925 0 -93 -24 c-98 -25 -152 -55 -202 -113 -50 -57 -61 -79 -86 -175
l-24 -93 0 -855 0 -855 -535 -535 -535 -535 0 1390 0 1390 -24 93 c-25 96 -36
118 -86 175 -49 57 -104 88 -197 111 l-88 22 -85 -21 c-47 -12 -96 -27 -110
-34 -14 -7 -451 -439 -972 -959 l-948 -947 0 -3105 0 -3105 35 -23 c18 -13 76
-35 127 -48 l93 -24 925 0 925 0 93 24 c98 25 152 55 202 113 50 57 61 79 86
175 l24 93 0 851 0 851 534 539 535 539 0 -1388 c1 -1363 1 -1390 21 -1470 12
-45 26 -95 32 -112 12 -32 1935 -1966 2000 -2011 20 -14 76 -36 125 -48 l88
-22 88 22 c93 23 147 54 197 111 50 57 61 79 86 175 l24 93 0 793 0 794 38
-31 c48 -37 68 -46 169 -71 80 -20 108 -20 1928 -20 1824 0 1848 0 1928 20 45
12 96 26 112 32 18 7 400 380 960 937 l930 926 5 -775 c6 -753 6 -777 27 -848
23 -80 57 -136 110 -182 57 -50 79 -61 175 -86 l93 -24 920 0 920 0 93 24 c98
25 152 55 202 113 50 57 61 79 86 175 23 91 24 102 24 548 l0 454 628 -625
c374 -374 639 -630 657 -637 17 -6 66 -20 110 -30 75 -18 135 -19 1000 -21
l920 -1 93 24 c98 25 152 56 202 113 50 57 61 79 85 173 l23 90 -23 91 c-13
50 -35 107 -49 127 -14 20 -385 397 -825 836 l-800 800 402 409 c384 391 402
408 408 381 6 -29 107 -292 134 -349 8 -16 20 -46 28 -65 17 -42 48 -73 117
-120 29 -19 59 -42 69 -51 30 -29 66 -46 116 -57 128 -27 173 -33 360 -52 110
-11 217 -25 237 -31 l38 -12 2 -763 3 -763 23 -23 c22 -22 29 -23 252 -26
l230 -3 0 -39 0 -38 -52 5 c-29 3 -102 8 -163 10 -184 7 -215 -24 -215 -215 0
-135 12 -174 60 -191 19 -6 99 -11 191 -11 l159 0 0 -37 c0 -21 -3 -56 -7 -77
l-6 -39 -208 7 c-299 10 -309 4 -309 -204 0 -203 9 -210 296 -210 l197 0 -7
-85 c-12 -162 12 -180 236 -180 184 0 180 -3 205 145 l17 105 196 -2 c107 -2
219 -5 248 -9 l52 -5 0 -80 c0 -103 16 -143 64 -159 l36 -12 0 -144 0 -144
-47 34 c-27 19 -66 39 -88 45 -56 15 -163 14 -218 -3 -27 -8 -49 -10 -53 -5
-8 14 -168 11 -182 -3 -10 -10 -17 -10 -32 0 -12 7 -56 12 -109 12 -82 0 -90
-2 -115 -26 l-26 -27 0 -196 c0 -219 -6 -245 -58 -239 -37 4 -40 23 -41 244
l-1 191 -26 27 c-25 24 -33 26 -115 26 l-89 0 0 114 c0 109 -1 114 -26 140
-25 24 -33 26 -119 26 -86 0 -94 -2 -119 -26 -25 -26 -26 -31 -26 -134 l0
-108 -97 -4 c-104 -4 -148 -20 -212 -73 -28 -24 -31 -25 -31 -8 0 10 -5 24
-11 30 -8 8 -7 17 5 34 22 32 21 132 -1 169 -38 66 -151 91 -219 49 l-33 -20
-23 20 c-19 18 -35 21 -114 21 -85 0 -93 -2 -118 -26 -26 -26 -26 -29 -26
-170 l0 -144 -105 0 -105 0 0 144 c0 141 0 144 -26 170 -25 24 -33 26 -119 26
-86 0 -94 -2 -119 -26 l-26 -27 0 -442 0 -442 26 -27 c25 -24 33 -26 119 -26
86 0 94 2 119 26 26 27 26 27 26 190 l0 164 105 0 105 0 0 -164 c0 -163 0
-163 26 -190 25 -24 33 -26 115 -26 54 0 97 5 109 12 16 10 24 10 40 0 12 -7
55 -12 109 -12 82 0 90 2 115 26 14 15 26 33 26 40 0 8 20 -1 51 -21 27 -19
67 -39 87 -45 52 -14 180 -12 225 4 20 8 40 10 43 5 3 -5 43 -9 88 -9 77 0 85
2 110 26 14 15 26 36 26 47 0 17 4 16 31 -11 18 -17 48 -39 68 -49 49 -23 175
-29 238 -11 34 10 57 12 74 6 13 -5 54 -8 92 -6 l67 4 0 -71 0 -72 -67 -12
c-331 -60 -679 -285 -860 -554 -39 -59 -48 -67 -54 -51 -4 10 -15 118 -24 239
-9 121 -19 241 -22 268 l-6 47 -425 0 -425 0 7 -113 c19 -324 26 -871 26
-2214 l0 -1483 490 0 489 0 3 1228 3 1227 31 87 c90 251 274 439 511 521 74
25 108 31 208 34 150 6 239 -11 355 -68 222 -110 356 -355 390 -714 6 -67 10
-536 10 -1212 l0 -1103 486 0 485 0 -4 1248 c-4 1374 -2 1335 -68 1602 -88
356 -265 632 -519 812 -178 126 -485 228 -687 228 l-43 0 0 58 0 57 88 0 c76
1 95 5 153 32 37 17 70 36 73 42 11 18 20 13 34 -17 17 -40 50 -52 146 -52 76
0 85 2 109 26 19 19 27 38 29 72 l3 47 35 -50 c19 -27 46 -60 59 -73 27 -25
25 -25 371 -24 301 1 322 1 336 13 11 9 18 9 26 1 8 -8 48 -12 104 -12 85 0
93 2 118 26 l26 27 0 188 c0 103 4 199 10 213 13 35 42 49 66 31 17 -12 19
-31 22 -224 l3 -210 26 -25 c24 -24 32 -26 118 -26 87 0 94 2 119 27 l27 27
-3 251 c-3 274 -8 296 -72 373 -52 60 -109 86 -205 90 -59 3 -99 -1 -129 -11
-23 -8 -45 -11 -48 -6 -3 5 -43 9 -88 9 -77 0 -85 -2 -110 -26 -14 -15 -26
-38 -26 -52 l0 -25 -19 25 c-11 13 -43 37 -73 53 -45 25 -67 30 -146 33 -66 3
-114 -1 -164 -13 -51 -12 -73 -14 -81 -6 -7 7 -53 11 -114 11 l-104 0 -44 -46
-45 -46 0 158 c0 118 3 161 14 173 23 27 36 81 36 147 l0 64 183 0 c100 0 199
-3 220 -6 l37 -7 0 -74 c0 -93 17 -137 60 -152 43 -14 287 -14 330 0 42 15 60
58 60 146 l0 68 212 -3 c117 -1 242 -5 277 -8 l63 -6 -4 -66 c-3 -37 0 -80 5
-95 10 -31 53 -57 94 -57 l28 0 -3 -448 -2 -449 26 -26 c25 -25 32 -27 119
-27 86 0 94 2 119 26 25 26 26 30 26 148 l0 121 86 -130 c48 -72 96 -138 108
-147 28 -23 205 -26 239 -4 19 13 28 13 77 -4 63 -22 172 -26 250 -9 28 6 76
28 108 49 50 34 57 37 60 20 2 -10 15 -30 29 -44 24 -24 32 -26 117 -26 79 0
95 3 114 21 l22 20 55 -27 c52 -25 61 -26 148 -20 50 4 138 6 195 6 64 -1 108
2 117 10 9 8 15 8 20 0 4 -7 49 -11 118 -12 62 0 159 -1 217 -2 98 -1 108 1
157 28 29 16 68 45 88 64 l34 35 42 -38 c65 -58 140 -88 234 -93 115 -6 183
11 261 64 61 42 64 43 64 20 0 -13 12 -35 26 -50 25 -24 33 -26 119 -26 86 0
94 2 119 26 22 23 26 35 26 88 l0 61 21 -42 c25 -51 78 -99 138 -126 38 -16
57 -18 135 -13 50 4 139 6 197 6 61 -1 109 3 113 8 4 6 23 5 53 -5 34 -10 79
-13 154 -11 92 4 112 8 154 31 l48 27 25 -25 c23 -23 32 -25 117 -25 86 0 94
2 119 26 l26 27 0 326 c0 227 -3 330 -11 338 -8 8 -7 17 5 34 10 15 16 44 16
79 l0 55 70 -3 70 -4 0 -412 0 -413 26 -27 c25 -24 33 -26 119 -26 86 0 94 2
119 26 26 26 26 28 26 174 0 144 1 148 20 143 28 -7 36 -24 65 -149 41 -175
60 -193 191 -194 85 0 93 2 117 26 l26 26 58 -29 c54 -26 66 -28 183 -28 143
0 218 15 254 52 l25 25 22 -21 c47 -44 101 -61 190 -61 55 0 94 5 113 15 26
14 33 14 72 -1 35 -13 62 -15 131 -10 49 4 134 6 191 6 69 -1 108 2 118 11 11
9 18 9 26 1 16 -16 190 -16 206 0 9 9 15 9 24 0 8 -8 46 -12 104 -12 85 0 93
2 118 26 l26 27 0 467 0 467 -26 27 c-25 24 -33 26 -119 26 -86 0 -94 -2 -119
-26 -14 -15 -26 -31 -26 -36 0 -5 -9 -4 -19 2 -58 30 -158 1 -201 -60 -26 -36
-28 -134 -4 -169 12 -17 13 -26 5 -34 -6 -6 -11 -22 -11 -35 l0 -25 -19 25
c-11 13 -43 37 -73 53 -46 25 -66 30 -149 33 -67 3 -114 -1 -159 -12 -43 -11
-67 -13 -74 -6 -5 5 -32 10 -58 10 l-48 0 0 44 c0 33 -6 49 -26 70 -32 31 -71
34 -156 10 -68 -19 -108 -55 -108 -95 0 -21 -5 -29 -17 -29 -10 0 -26 -7 -36
-14 -16 -12 -24 -12 -60 5 -31 13 -65 19 -127 19 -103 0 -144 -11 -208 -54
l-50 -33 -5 52 c-4 41 -24 102 -44 135 -2 3 78 5 176 5 160 0 181 2 199 18 53
48 41 126 -22 152 -26 11 -77 15 -195 15 -184 0 -171 -9 -171 118 l0 72 195 0
c226 0 256 7 280 64 21 50 20 218 -1 280 -25 74 -43 78 -288 70 -158 -5 -205
-4 -211 6 -4 6 -10 41 -13 76 l-5 64 160 0 c94 0 174 5 193 11 48 17 60 56 60
194 0 147 -11 176 -74 200 -40 16 -66 17 -201 11 l-155 -7 0 30 0 31 199 0
c122 0 211 4 231 11 61 22 60 -2 53 828 l-6 751 31 0 c17 0 43 5 59 11 15 5
129 21 253 34 262 28 371 47 408 71 15 10 67 47 115 83 98 72 118 101 156 229
17 57 26 72 37 68 9 -3 765 -6 1680 -6 l1664 0 0 -75 0 -75 -731 0 c-702 0
-734 -1 -812 -20 -45 -12 -95 -26 -112 -32 -32 -12 -1956 -1925 -2001 -1990
-14 -20 -36 -76 -48 -125 l-22 -88 22 -88 c23 -90 34 -113 84 -170 50 -58 104
-88 202 -113 l93 -24 1858 0 c1837 0 1860 0 1940 20 45 12 96 26 112 32 18 7
374 354 903 882 l872 871 0 1807 0 1807 -37 13 c-30 10 -379 13 -1720 16
l-1683 2 0 65 0 65 738 0 737 0 94 24 c51 14 108 35 126 48 18 13 418 411 889
885 l856 861 0 406 0 405 -37 13 c-30 10 -413 13 -1908 16 l-1870 3 -90 -22
c-49 -12 -103 -28 -120 -36 -34 -17 -1952 -1928 -1991 -1985 -14 -20 -35 -69
-47 -110 -21 -72 -21 -85 -27 -1213 l-5 -1140 -54 80 c-30 44 -87 130 -127
190 -40 61 -80 119 -89 130 -14 19 -114 170 -264 402 -36 56 -84 132 -106 168
-22 37 -61 99 -86 138 -25 40 -62 97 -81 127 -62 95 -171 274 -190 310 -11 19
-34 60 -53 90 -19 30 -43 72 -54 92 -11 20 -34 56 -50 80 -17 25 -42 67 -56
94 -15 27 -41 72 -58 101 -60 97 -102 168 -114 193 -8 14 -28 49 -46 77 -29
48 -134 227 -211 362 -17 29 -40 68 -51 87 -11 18 -47 81 -80 139 -33 59 -71
126 -85 150 -64 111 -188 332 -213 378 -15 29 -38 70 -52 92 -13 22 -38 67
-55 100 -17 33 -43 81 -58 107 -15 26 -80 143 -145 260 -64 117 -124 224 -132
238 -8 14 -24 45 -36 70 -12 25 -27 52 -34 60 -7 8 -34 56 -59 105 -26 50 -59
113 -75 140 -71 129 -97 177 -146 270 -66 127 -118 222 -165 305 -20 36 -49
90 -63 120 -15 30 -40 78 -55 105 -16 28 -59 109 -96 180 -38 72 -76 144 -86
160 -10 17 -48 89 -85 160 -131 251 -163 311 -220 420 -33 61 -100 191 -151
290 -128 249 -180 350 -218 420 -79 148 -396 766 -640 1250 -70 138 -148 291
-174 340 -26 50 -53 104 -60 120 -7 17 -99 201 -205 410 l-193 380 -100 3
-101 3 -189 -375z m106 -1009 l27 -192 -147 -295 c-81 -162 -149 -302 -152
-310 -3 -8 -8 -13 -11 -10 -3 3 -20 88 -37 190 l-31 184 157 318 c87 174 160
315 163 312 3 -2 17 -91 31 -197z m566 -133 l165 -335 -26 -152 c-14 -84 -29
-161 -34 -172 -6 -16 -42 49 -168 306 l-160 325 25 182 c14 100 27 182 29 182
3 0 79 -151 169 -336z m-79 -521 l155 -318 -18 -115 c-9 -63 -21 -121 -24
-129 -5 -8 -67 102 -164 290 l-157 304 16 115 c18 135 25 170 31 170 3 0 75
-143 161 -317z m-433 260 c3 -16 12 -79 21 -141 l15 -113 -132 -257 c-73 -141
-139 -271 -148 -289 -8 -18 -18 -32 -21 -33 -3 0 -16 58 -27 129 l-22 129 145
291 c80 161 145 296 145 301 0 22 19 8 24 -17z m-438 -381 l32 -187 -255 -505
c-140 -278 -257 -508 -259 -511 -3 -6 -98 14 -207 42 l-38 10 97 187 c218 423
259 501 419 820 92 182 170 332 173 332 4 0 21 -84 38 -188z m1511 -490 c178
-356 323 -651 323 -657 1 -11 -177 -58 -195 -51 -7 2 -126 230 -265 507 l-253
503 29 173 c16 95 31 173 34 173 3 0 150 -291 327 -648z m-815 386 c26 -51 95
-185 154 -298 l107 -205 -13 -85 c-7 -47 -16 -94 -20 -104 -6 -18 -85 123
-238 429 -22 44 -48 90 -59 103 -18 22 -18 29 -4 138 9 63 18 114 21 114 3 0
27 -42 52 -92z m-183 -44 l12 -105 -122 -237 c-165 -320 -167 -323 -172 -315
-3 5 -12 50 -21 101 l-16 93 138 267 c76 147 141 275 145 285 14 37 24 13 36
-89z m809 -637 c138 -274 216 -440 209 -442 -64 -22 -127 -32 -135 -21 -5 6
-60 108 -122 226 -62 118 -137 262 -168 319 l-55 104 17 106 c18 111 27 154
31 149 1 -2 101 -200 223 -441z m-1241 311 l20 -122 -170 -325 c-93 -179 -173
-330 -177 -334 -7 -8 -126 15 -138 28 -7 7 428 875 439 875 3 0 15 -55 26
-122z m641 -156 c67 -130 151 -292 186 -360 41 -78 59 -121 49 -118 -14 6
-308 183 -366 221 -21 13 -33 8 -210 -100 -103 -62 -187 -109 -187 -105 0 5
40 85 88 177 49 92 126 241 173 331 46 89 87 162 91 162 5 0 8 -12 8 -27 0
-57 17 -56 24 1 4 31 10 56 14 56 4 0 62 -107 130 -238z m-577 -223 l17 -101
-64 -121 c-36 -67 -69 -123 -74 -125 -6 -2 -10 -10 -10 -18 0 -24 -39 -94 -53
-94 -28 1 -112 27 -112 36 0 12 268 524 275 524 3 0 12 -45 21 -101z m1024
-160 c75 -143 134 -263 131 -266 -5 -6 -119 -34 -122 -30 -1 1 -43 81 -94 177
l-93 175 12 80 c13 85 21 125 26 125 2 0 65 -117 140 -261z m-1825 -524 c0
-13 -91 -185 -98 -185 -5 1 -96 150 -110 182 -2 5 44 8 102 8 58 0 106 -2 106
-5z m257 -7 c-20 -50 -214 -399 -222 -400 -5 0 -25 26 -43 58 l-34 59 62 125
c91 184 77 170 166 170 57 0 75 -3 71 -12z m253 8 c0 -2 -22 -43 -48 -92 -27
-49 -104 -191 -171 -316 -68 -126 -126 -228 -130 -228 -3 0 -21 27 -40 60
l-33 61 139 259 138 260 73 0 c39 0 72 -2 72 -4z m310 -1 c0 -3 -40 -69 -89
-148 -118 -190 -702 -1133 -758 -1224 -25 -40 -48 -73 -53 -73 -5 0 -16 23
-25 50 l-17 50 140 253 c77 138 182 331 234 427 230 423 287 529 323 598 l37
72 104 0 c57 0 104 -2 104 -5z m1098 -122 c172 -318 528 -970 595 -1091 l74
-134 -36 -94 c-20 -52 -39 -93 -43 -92 -4 2 -154 239 -334 528 -179 289 -392
631 -473 760 -80 129 -147 238 -149 242 -2 5 64 8 147 8 l150 0 69 -127z m278
-55 c53 -101 116 -218 138 -260 l41 -77 -32 -58 c-17 -32 -35 -59 -40 -60 -8
-3 -334 594 -341 623 -3 11 13 14 67 14 l69 0 98 -182z m237 35 l75 -148 -36
-62 c-21 -35 -39 -63 -42 -63 -3 0 -39 62 -79 138 -41 75 -92 170 -113 210
l-40 72 80 0 80 0 75 -147z m237 142 c0 -11 -103 -185 -109 -185 -5 0 -83 143
-99 182 -2 4 44 8 102 8 58 0 106 -2 106 -5z m-2885 -167 l69 -123 -105 -204
c-57 -112 -109 -202 -114 -200 -10 3 -115 264 -115 286 0 14 183 363 190 363
3 0 36 -55 75 -122z m3048 -106 l96 -188 -28 -69 c-15 -39 -36 -94 -46 -122
-11 -29 -22 -53 -25 -53 -7 0 -215 400 -215 414 0 13 108 205 115 206 3 0 49
-85 103 -188z m-974 -764 l543 -872 -16 -31 c-9 -17 -34 -51 -56 -75 -34 -40
-40 -43 -53 -30 -7 8 -79 121 -159 250 -80 129 -294 474 -475 765 l-330 530
-7 168 c-4 92 -3 167 1 167 4 -1 253 -393 552 -872z m-723 795 c-3 -10 -8 -65
-12 -123 -4 -58 -10 -115 -15 -128 -6 -16 -698 -1137 -937 -1517 l-25 -39 -44
49 c-23 27 -43 53 -43 56 0 4 98 164 218 357 119 192 359 577 532 855 173 279
319 507 323 507 5 0 6 -8 3 -17z m-1188 -209 c18 -31 32 -60 32 -66 0 -20
-235 -448 -244 -445 -5 2 -20 34 -33 73 l-25 69 112 213 c61 116 115 212 119
212 4 0 21 -25 39 -56z m2728 -162 l111 -217 -26 -68 c-14 -37 -30 -66 -35
-64 -4 1 -62 103 -128 224 l-119 222 27 48 c33 57 44 73 53 73 3 0 56 -98 117
-218z m-3154 -59 l57 -148 -118 -226 c-210 -397 -292 -549 -300 -549 -4 0 -42
50 -85 112 -76 108 -78 112 -63 137 16 29 183 340 339 634 55 103 103 187 106
187 4 0 33 -66 64 -147z m3683 -326 c118 -229 215 -422 215 -429 -1 -7 -27
-50 -59 -96 l-59 -83 -90 168 c-178 331 -322 607 -322 619 0 7 16 54 36 105
20 52 40 105 45 118 5 13 12 22 14 19 2 -2 101 -192 220 -421z m-3127 322 l34
-60 -108 -197 c-60 -108 -120 -218 -134 -244 -14 -26 -29 -46 -34 -45 -6 2
-21 33 -34 69 l-24 66 128 236 c70 130 130 236 133 236 3 0 21 -28 39 -61z
m2481 -176 c67 -123 121 -228 121 -235 0 -26 -44 -138 -53 -135 -8 2 -72 114
-239 418 l-36 66 35 62 c19 35 39 59 43 54 5 -4 63 -108 129 -230z m-2906
-160 l27 -67 -77 -140 c-133 -245 -304 -551 -312 -559 -5 -5 -22 14 -40 41
l-31 49 172 324 c95 178 184 345 198 372 14 26 28 47 31 47 3 0 18 -30 32 -67z
m3361 -243 c89 -168 177 -333 195 -368 37 -68 37 -75 -13 -137 l-22 -28 -179
324 c-98 178 -185 336 -194 351 -14 26 -14 33 9 98 13 39 28 69 33 67 5 -1 82
-140 171 -307z m-1898 123 c-7 -117 -14 -340 -22 -678 -6 -246 -7 -251 -31
-283 -39 -52 -111 -99 -198 -128 -105 -34 -258 -36 -380 -5 -43 12 -83 25 -87
29 -4 4 146 252 333 552 187 300 348 560 359 578 11 17 22 32 25 32 3 0 3 -44
1 -97z m560 -483 c180 -289 336 -539 346 -557 l19 -31 -53 -16 c-89 -25 -211
-36 -291 -26 -138 18 -218 54 -294 132 l-42 43 -16 470 c-18 553 -17 532 -6
520 5 -6 156 -246 337 -535z m-1923 343 l26 -66 -56 -101 c-83 -149 -295 -520
-300 -526 -6 -6 -61 60 -68 83 -4 11 51 120 158 315 91 163 172 312 181 330 9
17 20 32 25 32 4 0 20 -30 34 -67z m3021 30 c10 -21 89 -167 177 -324 87 -158
160 -292 161 -297 3 -12 -53 -101 -64 -102 -8 0 -29 35 -218 369 l-144 253 24
69 c14 38 29 69 35 69 6 0 19 -17 29 -37z m-2931 -262 l17 -50 -169 -272 c-92
-150 -173 -275 -178 -276 -5 -2 -16 8 -23 23 -13 23 -12 30 13 72 15 26 91
161 169 299 79 139 145 253 148 253 3 0 13 -22 23 -49z m2977 -256 l170 -297
-42 -59 c-23 -33 -45 -56 -49 -52 -4 4 -80 125 -169 268 l-161 259 25 66 c14
36 30 78 36 94 6 16 13 27 16 24 2 -3 81 -139 174 -303z m-3785 179 c41 -59
75 -111 75 -115 0 -26 -611 -1122 -620 -1112 -4 4 -42 54 -84 110 l-76 103
243 442 c134 244 270 493 302 553 60 114 75 138 82 132 2 -3 37 -53 78 -113z
m4597 -234 c82 -157 217 -410 299 -562 82 -152 149 -280 149 -284 0 -15 -103
-145 -112 -142 -11 4 -184 311 -459 815 l-160 293 58 85 c32 46 62 83 66 82 5
-1 76 -131 159 -287z m-22977 -2643 l924 928 1 938 0 937 940 0 940 0 0 -4682
0 -4683 -940 940 -940 940 0 1860 -1 1860 -924 -928 -925 -928 0 -935 0 -934
-940 0 -940 0 0 2807 0 2808 937 938 938 937 3 -1866 2 -1865 925 928z m15245
907 l0 -1866 -925 -931 -925 -932 925 -925 c509 -509 925 -928 925 -933 0 -4
-420 -7 -932 -7 l-933 0 -927 927 -928 928 0 -928 0 -927 -935 0 -935 0 0
2796 0 2797 928 933 927 932 1868 1 1867 1 0 -1866z m16688 1857 c-1 -5 -420
-428 -930 -940 l-926 -931 -936 0 -936 0 0 -455 0 -455 1865 0 1865 0 0 -1407
0 -1408 -927 -927 -928 -928 -1875 0 -1875 0 935 935 935 935 932 0 933 0 0
465 0 465 -1865 0 -1865 0 0 1397 0 1398 932 932 933 933 1868 0 c1079 0 1867
-4 1865 -9z m-22878 -2799 l0 -2789 -932 -931 -933 -932 -1862 0 -1863 0 0
2792 0 2793 927 927 928 928 1867 0 1868 0 0 -2788z m9499 2663 l32 -44 -112
-198 c-199 -352 -504 -880 -516 -893 -6 -6 -52 53 -53 67 0 7 98 189 218 405
120 216 256 464 303 550 46 87 87 158 90 158 3 0 20 -20 38 -45z m4182 -127
c51 -95 189 -346 306 -557 l213 -383 -26 -35 c-22 -29 -29 -33 -39 -21 -26 27
-615 1059 -615 1077 0 13 52 90 61 91 4 0 49 -78 100 -172z m-4054 -57 l31
-48 -160 -274 c-240 -412 -469 -789 -478 -789 -4 0 -19 17 -34 39 l-27 38 59
99 c69 117 375 650 486 847 43 75 80 137 84 137 4 0 21 -22 39 -49z m3852 23
c14 -31 423 -748 530 -929 39 -66 71 -125 71 -130 0 -14 -57 -82 -63 -75 -20
22 -609 1018 -623 1054 -6 15 50 106 65 106 4 0 13 -12 20 -26z m-3734 -212
c-3 -8 -89 -150 -192 -315 -103 -166 -243 -392 -311 -502 -68 -110 -128 -204
-133 -210 -6 -5 -14 -4 -21 3 -10 10 -9 17 2 35 33 52 425 707 520 870 l104
178 18 -23 c10 -13 15 -29 13 -36z m3715 -162 c62 -107 201 -341 308 -519 212
-353 202 -327 148 -394 l-22 -28 -301 483 c-165 266 -310 501 -323 524 l-24
41 40 56 c29 42 42 53 50 44 6 -7 62 -100 124 -207z m-1821 -226 c150 -81 170
-261 42 -377 -122 -110 -329 -70 -397 77 -31 66 -31 126 0 192 60 130 224 180
355 108z m-2978 -207 l76 -102 -33 -60 c-18 -33 -38 -60 -43 -60 -12 0 -151
201 -151 218 0 19 61 120 68 112 4 -3 41 -52 83 -108z m1854 71 c130 -27 305
-137 426 -266 75 -79 154 -180 147 -187 -3 -3 -235 -4 -516 -3 l-510 3 106
170 c59 94 126 201 150 239 l42 68 53 -7 c28 -3 75 -11 102 -17z m2137 5 c24
-28 289 -455 285 -459 -2 -2 -229 -3 -505 -2 l-501 3 45 60 c99 134 262 277
384 340 51 26 137 53 208 65 69 11 68 11 84 -7z m1806 -93 l33 -60 -51 -75
c-28 -41 -54 -75 -58 -75 -4 0 -22 28 -41 63 l-34 63 54 72 c29 40 56 72 59
72 3 0 20 -27 38 -60z m-4631 -216 c-85 -137 -269 -433 -409 -659 -140 -225
-400 -644 -578 -930 -177 -286 -326 -524 -331 -529 -12 -13 -33 8 -86 81 l-45
63 52 84 c46 75 56 85 84 88 36 3 7 -39 335 488 939 1509 920 1479 964 1502
75 40 162 75 165 68 2 -5 -66 -120 -151 -256z m3296 232 c43 -19 104 -51 136
-72 l58 -38 644 -1029 c354 -566 650 -1042 658 -1057 13 -27 12 -31 -33 -94
-49 -69 -71 -80 -98 -48 -8 9 -132 206 -275 437 -564 911 -1186 1911 -1195
1923 -18 22 23 13 105 -22z m-4591 -203 c40 -60 74 -111 76 -115 8 -19 -781
-1338 -800 -1338 -8 0 -140 136 -146 149 -1 4 94 176 211 382 117 206 295 521
396 702 101 180 186 327 187 327 2 0 36 -48 76 -107z m6072 -81 c195 -355 497
-888 654 -1155 l75 -129 -46 -46 c-41 -40 -49 -45 -60 -32 -29 31 -411 662
-665 1099 l-131 224 50 73 c27 41 53 74 57 74 4 0 34 -49 66 -108z m-425 -125
l41 -67 -26 -40 c-15 -22 -29 -40 -33 -40 -8 0 -81 126 -81 140 0 11 51 83 55
78 2 -2 21 -33 44 -71z m-5234 28 l26 -36 -43 -69 c-23 -39 -45 -70 -48 -70
-7 0 -50 68 -50 79 0 14 71 131 80 131 4 0 20 -16 35 -35z m-245 -71 l20 -30
-48 -80 c-325 -535 -442 -725 -642 -1037 -108 -170 -114 -177 -132 -161 -23
21 -23 39 0 72 69 99 490 799 721 1200 24 40 47 72 52 70 6 -2 19 -17 29 -34z
m5754 -87 c93 -163 557 -938 646 -1078 68 -106 70 -112 54 -130 -9 -11 -20
-19 -25 -19 -13 0 -381 582 -674 1068 l-129 213 19 35 c10 18 23 34 29 34 6
-1 42 -56 80 -123z m-393 -28 l42 -71 -17 -31 c-22 -42 -45 -72 -50 -66 -11
13 -86 137 -86 143 0 8 59 96 64 96 2 0 23 -32 47 -71z m-5257 -38 l27 -39
-87 -139 c-307 -487 -710 -1093 -727 -1093 -7 0 -17 8 -24 18 -9 16 12 54 139
253 153 240 411 657 557 902 46 75 84 137 86 137 1 0 14 -18 29 -39z m5515
-39 c76 -131 430 -705 591 -956 154 -242 164 -265 119 -274 -18 -3 -362 511
-703 1050 -58 92 -106 172 -106 178 0 12 43 80 50 80 3 -1 25 -35 49 -78z
m-3053 -34 c10 -24 20 -46 22 -50 2 -5 -321 -8 -717 -8 -397 0 -721 3 -721 7
0 3 11 26 25 50 l26 43 673 0 674 0 18 -42z m1863 -4 c17 -25 31 -47 31 -50 0
-2 -320 -4 -711 -4 l-710 0 7 23 c3 12 13 34 21 50 l14 27 659 0 659 0 30 -46z
m-4298 -203 c-89 -145 -294 -475 -539 -871 -148 -238 -168 -276 -152 -280 18
-5 17 -10 -18 -62 l-37 -58 -67 0 c-38 0 -68 3 -68 6 0 3 53 83 119 177 229
333 749 1128 801 1226 12 23 13 24 26 7 11 -16 3 -34 -65 -145z m5464 -56
c197 -311 434 -671 623 -946 94 -138 172 -256 172 -261 0 -5 -39 -7 -87 -6
l-87 3 -122 195 c-67 107 -252 406 -413 663 l-291 469 31 45 c17 24 35 43 39
41 5 -2 66 -93 135 -203z m-2897 -97 c6 -20 7 -39 4 -42 -8 -8 -1772 -7 -1772
0 0 4 12 26 28 50 l27 44 840 2 c549 2 844 0 852 -7 6 -5 16 -27 21 -47z
m1947 11 c14 -21 25 -43 25 -49 0 -7 -287 -10 -875 -10 -646 0 -875 3 -875 11
0 7 5 29 12 50 l11 39 831 2 c457 2 835 1 839 0 4 -2 19 -21 32 -43z m-1866
-336 c6 -21 11 -44 11 -50 0 -10 -215 -13 -1040 -13 l-1040 0 31 50 31 50 998
0 999 0 10 -37z m2081 -7 c16 -25 30 -47 30 -50 0 -3 -463 -6 -1029 -6 l-1029
0 9 42 c6 23 12 45 15 50 3 4 448 8 989 8 l984 0 31 -44z m-5867 -301 l68 -73
-181 -278 c-316 -485 -567 -841 -831 -1179 -171 -220 -234 -293 -244 -283 -4
4 76 145 178 315 211 352 506 855 752 1281 93 160 174 291 180 291 5 -1 41
-34 78 -74z m7802 -170 c349 -583 685 -1096 968 -1474 102 -136 128 -177 120
-189 -16 -27 -27 -23 -66 26 -272 333 -437 553 -686 910 -168 241 -512 762
-533 807 -11 24 -8 29 32 70 24 25 47 42 51 37 4 -4 55 -88 114 -187z m-3227
-169 c1 -182 -1 -333 -5 -337 -5 -4 -30 0 -57 9 -52 18 -83 50 -89 92 l-4 25
-227 3 c-175 2 -227 5 -224 15 8 23 100 77 166 97 37 12 113 28 170 37 l103
16 -3 66 -3 65 -95 68 c-52 37 -99 67 -103 68 -5 0 -39 -25 -75 -55 -37 -30
-69 -55 -73 -55 -3 0 -14 36 -24 80 -10 45 -22 83 -27 86 -4 3 -90 5 -190 5
l-183 0 -21 -80 c-11 -44 -23 -83 -27 -87 -3 -4 -36 19 -73 50 -37 31 -73 55
-80 52 -8 -3 -54 -34 -104 -68 l-90 -63 0 -66 0 -66 104 -17 c57 -9 137 -28
178 -42 69 -23 148 -74 148 -95 0 -5 -93 -9 -225 -9 l-225 0 0 -24 c0 -52 -60
-99 -143 -111 l-47 -7 0 340 0 341 43 3 c23 2 371 1 772 -2 l730 -5 3 -329z
m-2608 -6 l0 -340 -105 0 -105 0 0 340 0 340 105 0 105 0 0 -340z m423 328
c-2 -5 -3 -156 -3 -338 l0 -330 -105 0 -105 0 0 340 0 341 108 -3 c59 -2 106
-6 105 -10z m427 -328 l0 -341 -107 3 -108 3 -3 325 c-1 179 0 330 3 337 3 9
34 13 110 13 l105 0 0 -340z m2180 0 l0 -340 -105 0 -105 0 0 340 0 340 105 0
105 0 0 -340z m421 0 l0 -335 -105 -3 -106 -3 0 341 0 341 105 -3 105 -3 1
-335z m429 0 l0 -341 -107 3 -108 3 -3 325 c-1 179 0 330 3 337 3 9 34 13 110
13 l105 0 0 -340z m428 -8 c111 -178 202 -326 202 -328 0 -2 -94 -4 -210 -4
l-210 0 0 337 c0 185 4 333 8 328 5 -6 100 -155 210 -333z m-4730 -14 l-3
-313 -198 -3 c-157 -2 -198 0 -195 10 6 24 381 618 390 618 4 0 7 -141 6 -312z
m-1390 201 c12 -18 7 -29 -39 -102 -128 -201 -450 -664 -637 -917 -194 -262
-471 -610 -593 -744 -5 -6 -11 -3 -14 6 -4 11 40 72 131 184 162 199 368 474
554 739 133 189 465 687 531 797 19 32 39 58 44 58 6 0 16 -9 23 -21z m7427
-57 c436 -679 817 -1212 1168 -1631 57 -69 75 -97 67 -105 -8 -8 -16 -5 -28
10 -9 11 -82 99 -162 195 -323 386 -621 792 -989 1343 -147 219 -152 229 -135
247 9 10 20 19 23 19 3 0 28 -35 56 -78z m-7322 -50 c15 -17 12 -24 -50 -111
-36 -52 -74 -96 -84 -98 -11 -3 -75 -93 -151 -211 -206 -320 -645 -885 -982
-1264 -105 -118 -73 -64 41 69 327 382 694 877 1072 1446 69 103 128 187 131
187 4 0 14 -8 23 -18z m7309 -194 c398 -596 749 -1066 1106 -1481 47 -54 83
-100 80 -102 -5 -5 -169 181 -319 360 -275 328 -691 875 -833 1095 -38 58 -74
108 -81 112 -15 9 -135 182 -135 195 0 11 21 33 32 33 4 0 72 -96 150 -212z
m-5812 -453 c1542 -26 2434 -31 3235 -15 270 5 666 11 880 15 215 3 462 7 550
10 88 3 367 7 620 10 253 3 503 8 556 11 l96 5 146 -193 146 -193 -97 -6 c-53
-4 -119 -7 -147 -8 -48 -1 -55 -5 -154 -90 l-104 -89 -131 -6 c-72 -4 -710
-22 -1419 -41 l-1287 -35 -68 45 -67 45 -693 0 -692 0 -68 -45 -68 -45 -1264
34 c-696 19 -1334 38 -1419 41 l-154 6 -101 89 -102 88 -138 7 c-75 4 -135 11
-134 15 2 4 65 90 142 192 l139 186 171 -5 c94 -2 826 -15 1626 -28z m-1445
-745 c347 -5 801 -12 1010 -15 209 -2 558 -7 775 -11 1645 -23 1823 -23 3445
0 215 4 563 9 775 12 212 2 671 9 1020 14 349 5 708 10 797 10 l161 0 51 -64
c28 -35 51 -67 51 -70 0 -3 -2056 -6 -4570 -6 -2513 0 -4570 3 -4570 6 0 3 24
34 53 69 l52 64 160 0 c88 0 444 -4 790 -9z m8345 -412 c27 -29 49 -57 50 -63
0 -5 -10 -22 -23 -36 l-22 -27 -155 39 -155 38 -4535 1 -4535 0 -125 -30 c-69
-16 -129 -30 -135 -30 -11 0 -45 55 -45 73 0 6 17 28 37 49 l37 38 4779 0
4778 0 49 -52z m-8943 -718 c139 -316 253 -578 253 -582 0 -5 -102 -7 -227 -6
l-228 3 -5 365 -5 365 -87 210 c-49 116 -88 214 -88 218 0 4 30 7 67 5 l67 -3
253 -575z m951 508 c58 -106 59 -115 25 -150 -27 -28 -28 -34 -33 -151 l-5
-122 -33 -3 c-33 -3 -34 -4 -28 -40 11 -59 64 -160 120 -226 42 -49 56 -77 75
-141 30 -103 77 -208 91 -200 18 11 46 75 79 178 25 78 42 112 81 160 64 79
109 163 116 220 6 44 6 46 -22 49 l-29 3 -6 110 c-4 61 -7 116 -8 123 0 7 -13
24 -27 37 -33 31 -28 64 25 155 l37 65 388 0 388 0 44 -80 c24 -44 44 -88 44
-98 0 -10 -12 -29 -27 -42 -27 -22 -28 -27 -33 -147 l-5 -123 -32 -3 c-38 -4
-38 -2 -17 -73 19 -63 60 -134 118 -204 32 -37 50 -73 70 -139 34 -110 71
-196 85 -196 16 0 46 65 82 180 25 82 42 116 75 155 56 67 100 143 118 206 21
69 21 67 -16 71 l-33 3 -5 123 c-5 120 -6 125 -32 147 -16 13 -28 32 -28 42 0
10 20 54 44 98 l44 80 1429 3 1429 2 50 -96 49 -96 -28 -22 c-36 -29 -46 -74
-47 -193 l0 -93 -30 0 c-25 0 -30 -4 -30 -24 0 -57 52 -158 131 -254 29 -34
48 -75 74 -157 20 -61 45 -126 57 -145 l20 -34 19 23 c10 13 37 79 59 148 34
106 46 132 85 176 52 58 112 173 121 229 6 35 5 37 -25 40 l-32 3 -5 120 c-4
119 -5 120 -37 153 l-32 33 49 95 49 94 388 0 387 0 49 -95 48 -94 -33 -34
c-32 -33 -32 -34 -37 -153 l-4 -119 -32 -3 c-30 -3 -31 -5 -25 -40 8 -56 69
-170 120 -228 38 -44 52 -72 87 -178 23 -70 49 -136 59 -148 l18 -22 21 34
c12 19 37 85 56 145 30 92 44 121 89 177 63 78 105 160 113 217 6 40 5 41 -26
41 l-31 0 0 88 c-1 118 -12 167 -43 196 -31 29 -28 44 31 146 l38 65 532 3
c293 1 532 0 532 -3 0 -3 -75 -175 -166 -383 -92 -207 -207 -467 -255 -577
l-88 -200 -3753 -3 -3753 -2 -255 576 c-140 317 -256 581 -258 585 -2 5 235 9
531 9 l535 0 40 -72z m7591 -25 c-23 -54 -65 -156 -95 -227 l-54 -129 0 -358
0 -359 -215 0 c-118 0 -215 2 -215 5 0 2 60 141 134 307 73 167 188 428 256
581 l122 277 54 0 53 0 -40 -97z m-8931 -148 l92 -228 0 -496 c0 -273 3 -580
7 -683 l6 -188 1217 0 c669 0 2642 3 4383 7 l3167 6 0 681 0 681 95 224 c52
123 96 226 98 227 4 4 169 -35 175 -40 2 -2 -47 -92 -108 -200 l-111 -195 1
-751 0 -750 -4535 0 -4535 0 0 745 0 745 -110 201 c-61 111 -109 204 -106 206
6 7 150 41 161 39 6 -2 52 -105 103 -231z m370 -1063 l3 -53 -93 3 -93 3 -3
39 c-6 65 -3 67 95 64 l88 -3 3 -53z m200 1 l3 -53 -70 0 -71 0 0 55 0 56 68
-3 67 -3 3 -52z m200 0 l3 -53 -70 0 -71 0 0 55 0 56 68 -3 67 -3 3 -52z m200
0 l3 -53 -70 0 -71 0 0 55 0 56 68 -3 67 -3 3 -52z m200 0 l3 -53 -70 0 -71 0
0 55 0 56 68 -3 67 -3 3 -52z m200 0 l3 -53 -70 0 -71 0 0 55 0 56 68 -3 67
-3 3 -52z m200 0 l3 -53 -70 0 -71 0 0 55 0 56 68 -3 67 -3 3 -52z m200 -1 l3
-53 -73 3 -73 3 -3 39 c-5 63 -1 67 75 64 l68 -3 3 -53z m200 1 l3 -53 -70 0
-71 0 0 55 0 56 68 -3 67 -3 3 -52z m200 0 l3 -53 -70 0 -71 0 0 55 0 56 68
-3 67 -3 3 -52z m200 -1 l3 -53 -73 3 -73 3 2 45 c1 25 2 49 2 53 1 4 31 7 69
5 l67 -3 3 -53z m197 3 l0 -50 -72 -3 -73 -3 0 49 c0 27 3 52 7 56 4 4 37 6
73 4 l65 -3 0 -50z m201 31 c3 -13 4 -37 2 -52 -3 -29 -4 -29 -75 -32 l-73 -3
0 49 c0 27 3 52 7 55 3 4 35 7 69 7 59 0 64 -2 70 -24z m194 -31 l0 -55 -70 0
-70 0 0 48 c0 27 3 52 7 55 3 4 35 7 70 7 l63 0 0 -55z m202 43 c2 -7 4 -31 3
-53 l0 -40 -72 -3 -73 -3 0 49 c0 27 3 52 7 55 12 13 131 8 135 -5z m203 -43
l0 -50 -72 -3 -73 -3 0 49 c0 27 3 52 7 56 4 4 37 6 73 4 l65 -3 0 -50z m201
31 c3 -13 4 -37 2 -52 -3 -29 -4 -29 -75 -32 l-73 -3 0 49 c0 27 3 52 7 55 3
4 35 7 69 7 59 0 64 -2 70 -24z m194 -31 l0 -55 -70 0 -70 0 0 48 c0 27 3 52
7 55 3 4 35 7 70 7 l63 0 0 -55z m200 0 l0 -55 -70 0 -70 0 0 48 c0 27 3 52 7
55 3 4 35 7 70 7 l63 0 0 -55z m200 0 l0 -55 -70 0 -70 0 0 48 c0 27 3 52 7
55 3 4 35 7 70 7 l63 0 0 -55z m200 0 l0 -55 -70 0 -70 0 0 48 c0 27 3 52 7
55 3 4 35 7 70 7 l63 0 0 -55z m200 0 l0 -55 -70 0 -70 0 0 48 c0 27 3 52 7
55 3 4 35 7 70 7 l63 0 0 -55z m200 0 l0 -55 -70 0 -70 0 0 48 c0 27 3 52 7
55 3 4 35 7 70 7 l63 0 0 -55z m200 0 l0 -55 -70 0 -70 0 0 48 c0 27 3 52 7
55 3 4 35 7 70 7 l63 0 0 -55z m200 0 l0 -55 -70 0 -70 0 0 48 c0 27 3 52 7
55 3 4 35 7 70 7 l63 0 0 -55z m200 0 l0 -55 -70 0 -70 0 0 48 c0 27 3 52 7
55 3 4 35 7 70 7 l63 0 0 -55z m200 0 l0 -55 -70 0 -70 0 0 48 c0 27 3 52 7
55 3 4 35 7 70 7 l63 0 0 -55z m198 -2 l3 -53 -70 0 -71 0 0 48 c0 27 3 52 7
56 4 4 34 6 68 4 l60 -3 3 -52z m200 0 l3 -53 -70 0 -71 0 0 48 c0 27 3 52 7
56 4 4 34 6 68 4 l60 -3 3 -52z m202 2 l0 -55 -70 0 -70 0 0 48 c0 27 3 52 7
55 3 4 35 7 70 7 l63 0 0 -55z m198 -2 l3 -53 -70 0 -71 0 0 48 c0 27 3 52 7
56 4 4 34 6 68 4 l60 -3 3 -52z m200 0 l3 -53 -70 0 -71 0 0 48 c0 27 3 52 7
56 4 4 34 6 68 4 l60 -3 3 -52z m202 2 l0 -55 -70 0 -70 0 0 48 c0 27 3 52 7
55 3 4 35 7 70 7 l63 0 0 -55z m198 -2 l3 -53 -70 0 -71 0 0 55 0 56 68 -3 67
-3 3 -52z m200 0 l3 -53 -70 0 -71 0 0 55 0 56 68 -3 67 -3 3 -52z m200 0 l3
-53 -70 0 -71 0 0 55 0 56 68 -3 67 -3 3 -52z m200 0 l3 -53 -70 0 -71 0 0 48
c0 27 3 52 7 56 4 4 34 6 68 4 l60 -3 3 -52z m200 0 l3 -53 -70 0 -71 0 0 55
0 56 68 -3 67 -3 3 -52z m200 0 l3 -53 -70 0 -71 0 0 55 0 56 68 -3 67 -3 3
-52z m200 0 l3 -53 -70 0 -71 0 0 55 0 56 68 -3 67 -3 3 -52z m200 0 l3 -53
-70 0 -71 0 0 55 0 56 68 -3 67 -3 3 -52z m200 0 l3 -53 -70 0 -71 0 0 55 0
56 68 -3 67 -3 3 -52z m220 0 l3 -53 -80 0 -81 0 0 55 0 56 78 -3 77 -3 3 -52z
m2 -287 c0 -80 -3 -147 -7 -149 -5 -3 -1938 -6 -4298 -8 l-4290 -4 -3 153 -3
152 4301 0 4300 0 0 -144z m-7497 -444 c3 -4 3 -64 0 -135 l-6 -127 -151 0
c-83 0 -229 3 -325 7 l-174 6 7 121 c4 66 10 124 12 128 7 10 631 11 637 0z
m904 -6 c2 -1 0 -62 -4 -134 l-6 -132 -206 0 c-113 0 -257 3 -318 7 l-113 6 0
127 c0 70 3 130 8 134 6 6 632 -2 639 -8z m1023 -39 c0 -23 -3 -86 -7 -139
l-6 -98 -316 0 c-174 0 -346 3 -383 6 l-67 7 5 126 c3 69 7 131 9 136 1 7 136
9 384 7 l381 -2 0 -43z m1948 8 l3 -35 -645 0 -646 0 0 33 c0 19 2 36 4 38 2
2 292 3 643 2 l638 -3 3 -35z m1406 -97 c3 -72 4 -134 0 -137 -3 -3 -176 -8
-383 -9 l-378 -4 -6 99 c-4 54 -7 117 -7 141 l0 42 383 0 384 0 7 -132z m898
6 c2 -69 -1 -128 -6 -131 -4 -3 -150 -8 -322 -11 l-314 -5 -1 99 c0 54 -2 116
-5 137 l-5 37 325 0 325 0 3 -126z m902 49 c3 -42 6 -97 6 -123 l0 -47 -167
-6 c-91 -4 -237 -7 -325 -7 l-158 0 0 93 c0 50 -3 109 -6 130 l-7 37 325 0
325 0 7 -77z m-3204 -88 c0 -13 -78 -15 -647 -12 -506 1 -647 5 -651 15 -3 9
131 12 647 12 572 0 651 -2 651 -15z m18 -202 l-3 -28 -662 -3 -663 -2 0 30 0
30 666 0 665 0 -3 -27z m-3906 -120 c2 -5 2 -84 0 -177 l-4 -168 -261 6 c-144
4 -297 9 -340 12 l-78 6 5 57 c3 31 8 104 12 164 l6 107 328 0 c181 0 330 -3
332 -7z m3908 -3 c0 -7 -230 -10 -671 -10 -444 0 -668 3 -664 10 4 7 238 10
671 10 436 0 664 -3 664 -10z m3214 -87 c3 -54 9 -128 12 -164 l6 -67 -79 -6
c-43 -3 -196 -8 -340 -12 l-262 -6 -3 168 c-2 93 -2 172 0 177 2 4 151 7 331
7 l329 0 6 -97z m-6232 -93 c-1 -96 -6 -177 -10 -181 -10 -8 -615 10 -624 19
-3 4 -4 82 -1 175 l6 167 316 -2 316 -3 -3 -175z m5313 14 c4 -91 3 -170 -1
-174 -8 -8 -611 -31 -625 -24 -9 5 -22 340 -14 353 4 8 110 11 319 11 l314 0
7 -166z m-4361 149 l69 -6 -7 -126 c-3 -69 -9 -152 -13 -184 l-6 -59 -291 6
c-160 4 -327 9 -371 12 l-81 5 4 167 c2 92 5 173 7 180 3 9 75 12 312 12 169
0 339 -3 377 -7z m3466 -127 c0 -73 3 -154 6 -179 l6 -45 -83 -6 c-46 -3 -215
-8 -375 -12 l-292 -6 -6 59 c-3 32 -8 115 -12 185 l-6 127 48 4 c27 2 199 4
382 5 l332 2 0 -134z m-1386 -42 c3 -9 6 -24 6 -35 0 -19 -16 -19 -685 -19
l-685 0 0 28 c0 16 3 32 7 35 3 4 309 7 679 7 603 0 672 -2 678 -16z m6 -154
c0 -7 -237 -10 -690 -10 -453 0 -690 3 -690 10 0 7 237 10 690 10 453 0 690
-3 690 -10z m18 -207 l3 -33 -705 0 -706 0 0 35 0 35 703 -2 702 -3 3 -32z
m3122 -122 c0 -15 3 -56 6 -90 l7 -61 -262 0 -261 0 0 80 c0 44 1 81 3 82 1 0
110 4 242 8 132 3 246 7 253 8 7 1 12 -9 12 -27z m-3120 -11 c0 -7 -243 -10
-710 -10 -467 0 -710 3 -710 10 0 7 243 10 710 10 467 0 710 -3 710 -10z
m2170 -65 l0 -75 -54 0 c-29 0 -68 -5 -86 -11 -41 -15 -62 -60 -47 -102 17
-50 51 -57 292 -57 l215 0 0 -56 c0 -30 4 -63 10 -73 9 -18 7 -18 -42 -4 -35
11 -79 14 -142 11 -102 -5 -147 -21 -203 -74 l-35 -34 -18 23 c-10 13 -42 36
-72 52 -44 24 -68 30 -141 33 -48 3 -115 -1 -148 -7 -46 -10 -64 -10 -75 -1
-9 8 -38 10 -91 6 -43 -3 -123 -6 -178 -5 -97 0 -102 -1 -128 -27 -15 -15 -27
-38 -27 -51 l0 -24 -37 30 c-84 66 -117 76 -248 76 -111 0 -124 -2 -177 -28
-31 -15 -73 -44 -94 -65 l-37 -37 -46 45 c-73 72 -109 85 -228 85 l-103 0 0
77 c0 76 1 78 30 93 17 9 33 27 36 41 l7 26 12 -30 c17 -39 51 -49 200 -58
195 -10 230 18 218 174 l-6 80 64 6 c35 3 162 7 282 8 l217 3 0 -93 c0 -113
15 -155 60 -171 18 -6 90 -11 160 -11 70 0 142 5 160 11 46 17 60 57 60 178 0
95 1 100 23 104 12 2 111 5 220 6 l197 1 0 -75z m-3881 -152 c6 -12 27 -27 46
-33 l35 -12 -62 -75 -63 -76 -3 74 c-2 40 -8 79 -14 86 -8 10 -6 18 7 33 10
11 20 43 23 72 l6 53 7 -51 c3 -28 11 -60 18 -71z m-3529 -463 l0 -430 -44 0
-44 0 -7 46 c-6 44 -7 45 -21 25 -8 -11 -36 -33 -62 -48 -39 -24 -58 -28 -117
-28 -108 1 -181 48 -225 147 -55 124 -27 291 62 374 92 88 229 97 315 21 l33
-29 0 176 0 176 55 0 55 0 0 -430z m1492 161 l3 -269 109 129 109 129 66 0 65
0 -69 -72 c-39 -40 -90 -94 -114 -120 l-44 -47 103 -138 c57 -76 114 -153 128
-170 l24 -33 -64 0 -64 0 -98 135 c-53 74 -100 135 -104 135 -3 0 -16 -10 -29
-22 -21 -20 -23 -29 -23 -135 l0 -113 -55 0 -55 0 0 430 0 430 55 0 55 0 2
-269z m3118 -161 l0 -430 -55 0 -55 0 0 430 0 430 55 0 55 0 0 -430z m770 247
l0 -184 40 38 c52 50 126 68 204 50 235 -53 265 -449 43 -563 -93 -47 -197
-32 -264 38 l-43 44 0 -50 0 -50 -45 0 -45 0 0 430 0 430 55 0 55 0 0 -183z
m5280 -247 l0 -430 -55 0 -55 0 0 430 0 430 55 0 55 0 0 -430z m-6373 410
l123 0 0 -129 0 -129 -58 38 c-67 45 -119 59 -214 60 -98 0 -161 -17 -228 -61
-72 -49 -132 -138 -150 -222 -6 -31 -13 -57 -14 -57 -10 0 -77 114 -73 123 3
7 49 64 104 127 134 156 143 170 143 221 l0 42 122 -6 c66 -4 177 -7 245 -7z
m760 -10 l133 0 0 -119 0 -120 -51 34 c-70 48 -116 58 -234 53 -73 -3 -113
-10 -147 -26 l-48 -21 0 106 0 106 107 -6 c58 -4 166 -7 240 -7z m3576 -31
c21 -7 55 -28 77 -46 103 -88 83 -269 -36 -339 l-45 -27 31 -21 c40 -28 73
-99 105 -225 15 -58 31 -113 36 -123 9 -16 5 -18 -45 -18 -67 0 -67 0 -102
147 -14 59 -34 122 -45 139 -27 44 -74 64 -153 64 l-66 0 0 -175 0 -175 -55 0
-55 0 0 400 0 400 23 5 c79 17 271 14 330 -6z m-10003 -159 l0 -170 195 0 195
0 0 170 0 170 55 0 55 0 0 -405 0 -405 -55 0 -55 0 0 190 0 190 -195 0 -195 0
0 -190 0 -190 -55 0 -55 0 0 405 0 405 55 0 55 0 0 -170z m4770 -27 c0 -192 1
-197 18 -172 9 15 80 103 157 198 l139 171 64 0 c38 0 61 -4 57 -10 -3 -5 -68
-82 -145 -171 -76 -90 -137 -166 -134 -170 2 -5 74 -109 159 -233 l154 -226
-63 0 -62 0 -134 199 -134 199 -38 -42 -37 -41 -1 -157 0 -158 -55 0 -55 0 0
405 0 405 55 0 55 0 0 -197z m6245 -33 l75 0 0 -40 0 -40 -75 0 -75 0 0 -184
c0 -172 1 -185 21 -211 19 -24 27 -26 70 -23 l49 3 0 -41 c0 -35 -4 -43 -22
-48 -81 -21 -175 12 -205 72 -15 31 -18 67 -21 235 l-4 197 -44 0 -44 0 0 40
0 40 45 0 45 0 0 54 0 53 53 15 52 15 3 -69 3 -68 74 0z m-8520 -1 c92 -23
164 -118 180 -235 8 -60 -9 -163 -35 -214 -70 -137 -247 -180 -362 -89 l-38
30 0 -156 0 -155 -55 0 -55 0 0 410 0 410 44 0 c46 0 56 -11 56 -70 0 -23 1
-23 39 14 59 58 139 77 226 55z m1113 -18 c84 -43 101 -103 105 -374 l2 -188
-45 3 c-44 3 -45 4 -48 41 l-3 37 -41 -34 c-71 -61 -178 -71 -248 -23 -57 38
-75 72 -75 136 1 119 82 183 260 204 l96 12 -6 33 c-9 47 -24 69 -61 87 -42
20 -107 18 -172 -4 l-53 -18 -13 31 c-12 29 -11 32 13 45 81 45 213 51 289 12z
m585 18 c50 -14 101 -60 123 -112 15 -35 19 -77 22 -254 l4 -213 -56 0 -56 0
0 188 c0 203 -7 246 -45 282 -38 35 -119 39 -165 8 -64 -43 -70 -69 -70 -285
l0 -193 -55 0 -55 0 0 290 0 290 45 0 c42 0 45 -2 46 -27 0 -16 4 -37 8 -48 8
-19 8 -19 19 2 13 24 68 61 110 73 39 12 81 12 125 -1z m1451 -20 c153 -79
202 -285 104 -441 -113 -180 -414 -161 -497 31 -77 179 6 379 177 428 63 17
164 9 216 -18z m784 2 c84 -43 101 -103 105 -374 l2 -188 -45 3 c-44 3 -45 4
-48 41 l-3 37 -41 -34 c-71 -61 -178 -71 -248 -23 -57 38 -75 72 -75 136 1
119 82 183 260 204 l96 12 -6 33 c-9 47 -24 69 -61 87 -42 20 -107 18 -172 -4
l-53 -18 -13 31 c-12 29 -11 32 13 45 81 45 213 51 289 12z m1236 -2 c153 -79
202 -285 104 -441 -113 -180 -414 -161 -497 31 -77 179 6 379 177 428 63 17
164 9 216 -18z m536 -19 c0 -49 0 -50 -31 -50 -46 0 -91 -25 -119 -67 -24 -35
-25 -43 -28 -230 l-4 -193 -54 0 -54 0 0 290 0 290 45 0 45 0 0 -62 0 -62 30
48 c32 50 90 85 143 86 26 0 27 -2 27 -50z m358 21 c84 -43 101 -103 105 -374
l2 -188 -45 3 c-44 3 -45 4 -48 41 l-3 37 -41 -34 c-71 -61 -178 -71 -248 -23
-57 38 -75 72 -75 136 1 119 82 183 260 204 l96 12 -6 33 c-9 47 -24 69 -61
87 -42 20 -107 18 -172 -4 l-53 -18 -13 31 c-12 29 -11 32 13 45 81 45 213 51
289 12z m491 13 c40 -11 51 -19 47 -31 -3 -8 -9 -26 -12 -39 -3 -13 -7 -24 -8
-24 0 0 -19 7 -41 15 -82 29 -168 10 -181 -41 -12 -48 10 -72 103 -115 49 -22
100 -52 115 -66 36 -34 52 -85 44 -135 -15 -94 -86 -141 -211 -142 -85 -1
-178 25 -170 47 3 7 9 24 14 39 l10 26 53 -20 c75 -28 152 -21 185 16 29 34
30 76 1 103 -13 12 -62 39 -109 61 -47 21 -95 51 -106 66 -48 60 -41 138 16
195 59 59 150 75 250 45z m1548 -9 c82 -41 133 -138 133 -252 l0 -43 -206 0
-207 0 6 -34 c22 -137 140 -195 305 -152 l52 13 6 -26 c3 -14 7 -31 9 -38 6
-18 -91 -38 -185 -38 -73 0 -93 4 -143 29 -102 50 -155 155 -144 288 7 79 31
139 77 192 75 85 197 110 297 61z m871 -4 c84 -43 101 -103 105 -374 l2 -188
-45 3 c-44 3 -45 4 -48 41 l-3 37 -41 -34 c-71 -61 -178 -71 -248 -23 -57 38
-75 72 -75 136 1 119 82 183 260 204 l96 12 -6 33 c-9 47 -24 69 -61 87 -42
20 -107 18 -172 -4 l-53 -18 -13 31 c-12 29 -11 32 13 45 81 45 213 51 289 12z
m-10718 -271 l0 -290 -55 0 -55 0 0 290 0 290 55 0 55 0 0 -290z m860 103 c0
-104 5 -204 10 -224 30 -107 181 -120 247 -20 22 32 23 43 23 232 l0 199 55 0
55 0 0 -290 0 -290 -45 0 c-42 0 -45 2 -46 28 0 15 -4 36 -8 47 -8 19 -8 19
-20 -2 -16 -32 -90 -72 -144 -79 -95 -13 -171 28 -211 115 -19 41 -21 68 -24
259 l-4 212 56 0 56 0 0 -187z m7710 -103 l0 -290 -55 0 -55 0 0 290 0 290 55
0 55 0 0 -290z m2490 0 l0 -290 -55 0 -55 0 0 290 0 290 55 0 55 0 0 -290z"/>
<path d="M14570 13375 l0 -925 925 0 925 0 0 925 0 925 -925 0 -925 0 0 -925z
m1460 0 l0 -535 -535 0 -535 0 0 535 0 535 535 0 535 0 0 -535z"/>
<path d="M8380 12440 l0 -1850 925 0 925 0 0 1850 0 1850 -925 0 -925 0 0
-1850z m1460 0 l0 -1460 -535 0 -535 0 0 1460 0 1460 535 0 535 0 0 -1460z"/>
<path d="M22970 12255 c-129 -80 -236 -148 -238 -153 -1 -4 38 -31 86 -60 l88
-52 717 0 716 0 78 46 c43 26 83 52 90 58 9 8 -48 48 -227 159 l-240 147 -417
0 -418 0 -235 -145z"/>
<path d="M22850 10605 l0 -535 680 0 680 0 -2 533 -3 532 -677 3 -678 2 0
-535z"/>
<path d="M19754 9671 c-67 -41 -63 -140 7 -176 74 -39 169 12 169 91 0 28 -8
44 -34 70 -40 40 -92 46 -142 15z"/>
<path d="M21028 9674 c-35 -19 -48 -43 -48 -91 1 -62 46 -103 115 -103 52 0
105 53 105 105 0 53 -53 105 -106 105 -22 -1 -51 -7 -66 -16z"/>
<path d="M22180 9661 c-36 -35 -46 -73 -30 -110 18 -43 44 -63 92 -68 57 -6
109 27 122 79 25 99 -111 172 -184 99z"/>
<path d="M23468 9674 c-29 -15 -58 -61 -58 -89 0 -55 60 -105 126 -105 51 0
104 53 104 105 0 53 -53 105 -106 105 -22 -1 -51 -7 -66 -16z"/>
<path d="M24745 9678 c-36 -19 -55 -52 -55 -93 0 -107 137 -144 207 -55 7 8
12 33 12 55 0 43 -10 61 -49 88 -28 19 -85 22 -115 5z"/>
<path d="M25913 9680 c-26 -11 -63 -66 -63 -93 0 -32 29 -76 62 -93 70 -36
155 6 165 83 4 34 1 45 -24 73 -22 25 -38 33 -73 36 -25 2 -55 0 -67 -6z"/>
<path d="M27174 9671 c-94 -58 -44 -191 72 -191 51 0 104 53 104 105 0 29 -8
45 -34 71 -40 40 -92 46 -142 15z"/>
<path d="M18755 7348 c-112 -65 -129 -290 -30 -377 66 -58 157 -54 217 10 44
46 51 77 47 198 -3 71 -8 95 -25 117 -53 72 -138 93 -209 52z m121 -99 c15
-17 19 -36 19 -99 0 -88 -17 -120 -65 -120 -33 0 -54 23 -70 75 -31 104 56
211 116 144z"/>
<path d="M24566 7347 c-62 -35 -86 -90 -86 -199 0 -102 13 -142 59 -181 91
-76 229 -26 260 96 51 204 -84 369 -233 284z m117 -94 c27 -31 39 -98 26 -145
-6 -24 -18 -51 -26 -60 -21 -24 -66 -23 -88 2 -20 22 -30 93 -21 145 13 66 73
98 109 58z"/>
<path d="M27493 7594 c-10 -4 -13 -45 -13 -156 l0 -150 88 4 c130 6 182 45
189 142 8 105 -49 157 -176 163 -42 1 -82 0 -88 -3z"/>
<path d="M20065 7356 c-77 -35 -105 -90 -105 -211 0 -99 14 -139 59 -178 91
-76 229 -26 260 96 48 193 -71 357 -214 293z m98 -103 c8 -10 20 -37 26 -60
13 -48 1 -115 -26 -145 -21 -24 -66 -23 -88 2 -20 22 -30 93 -21 144 12 65 74
98 109 59z"/>
<path d="M21185 7145 c-66 -18 -105 -60 -105 -116 0 -83 85 -124 170 -81 55
27 80 74 80 148 l0 64 -47 -1 c-27 0 -70 -6 -98 -14z"/>
<path d="M23164 7356 c-91 -40 -137 -169 -103 -291 15 -54 83 -121 132 -130
63 -12 108 2 153 49 62 65 79 153 49 252 -32 107 -136 161 -231 120z m115
-107 c45 -48 44 -147 -2 -196 -62 -68 -155 30 -126 134 6 23 20 51 30 62 26
27 73 27 98 0z"/>
<path d="M24005 7145 c-66 -18 -105 -60 -105 -116 0 -83 85 -124 170 -81 55
27 80 74 80 148 l0 64 -47 -1 c-27 0 -70 -6 -98 -14z"/>
<path d="M25184 7356 c-91 -40 -137 -169 -103 -291 15 -54 83 -121 132 -130
63 -12 108 2 153 49 62 65 79 153 49 252 -32 107 -136 161 -231 120z m115
-107 c45 -48 44 -147 -2 -196 -62 -68 -155 30 -126 134 6 23 20 51 30 62 26
27 73 27 98 0z"/>
<path d="M26135 7145 c-66 -18 -105 -60 -105 -116 0 -83 85 -124 170 -81 55
27 80 74 80 148 l0 64 -47 -1 c-27 0 -70 -6 -98 -14z"/>
<path d="M28124 7351 c-34 -21 -68 -70 -78 -113 l-6 -28 155 0 c153 0 155 0
155 22 0 41 -39 105 -74 122 -46 22 -114 20 -152 -3z"/>
<path d="M29045 7145 c-66 -18 -105 -60 -105 -116 0 -83 85 -124 170 -81 55
27 80 74 80 148 l0 64 -47 -1 c-27 0 -70 -6 -98 -14z"/>
<path d="M16600 8153 c-111 -18 -240 -92 -310 -177 -166 -201 -155 -529 25
-708 102 -102 229 -152 390 -152 115 0 184 14 272 56 72 33 173 122 208 183
93 157 97 358 13 527 -68 136 -179 224 -333 263 -55 14 -203 18 -265 8z"/>
<path d="M30716 7784 l-26 -27 -1 -266 0 -266 -82 239 c-104 303 -98 296 -242
296 -95 0 -105 -2 -125 -23 -29 -30 -300 -823 -300 -877 0 -27 7 -45 26 -64
25 -24 33 -26 119 -26 86 0 94 2 118 26 16 16 39 64 60 127 l34 102 71 3 70 3
34 -102 c22 -69 42 -112 61 -131 l29 -28 182 0 183 0 26 26 c19 19 27 38 29
72 l3 47 35 -50 c64 -92 69 -95 184 -95 62 0 106 4 113 11 8 8 24 7 59 -5 58
-19 184 -20 237 -2 20 8 40 10 43 5 8 -14 168 -11 182 3 10 10 17 10 32 0 24
-14 192 -16 206 -2 6 6 27 4 59 -6 36 -11 79 -14 156 -12 92 4 112 8 154 31
l48 27 25 -25 c23 -23 32 -25 116 -25 52 0 97 5 103 11 7 7 27 5 68 -7 44 -12
84 -15 160 -12 87 4 109 9 150 31 l48 27 25 -25 c23 -23 32 -25 117 -25 86 0
94 2 119 26 l26 27 0 326 c0 227 -3 330 -11 338 -8 8 -7 17 5 34 22 32 21 132
-1 169 -54 92 -207 93 -273 0 -22 -31 -28 -126 -10 -159 9 -18 7 -18 -42 -4
-34 11 -79 14 -142 11 -86 -4 -115 -12 -173 -48 -33 -21 -51 0 -29 31 22 32
21 132 -1 169 -54 92 -207 93 -273 0 -22 -31 -28 -126 -10 -160 9 -17 7 -17
-37 -4 -55 17 -182 18 -238 3 -22 -6 -53 -20 -68 -31 -37 -26 -57 -11 -33 23
22 32 21 132 -1 169 -39 66 -151 91 -219 49 -59 -36 -76 -70 -72 -144 l3 -65
-91 0 c-85 0 -93 -2 -118 -26 l-26 -27 0 -196 c0 -219 -6 -245 -58 -239 -37 4
-40 23 -41 244 l-1 191 -26 27 -27 26 -184 0 -184 0 -44 -46 -45 -46 0 160 c0
159 0 159 -26 186 -25 24 -33 26 -119 26 -86 0 -94 -2 -119 -26z m176 -333 l3
-269 109 129 109 129 66 0 65 0 -69 -72 c-39 -40 -90 -94 -114 -120 l-44 -47
103 -138 c57 -76 114 -153 128 -170 l24 -33 -64 0 -64 0 -98 135 c-53 74 -100
135 -104 135 -3 0 -16 -10 -29 -22 -21 -20 -23 -29 -23 -135 l0 -113 -55 0
-55 0 0 430 0 430 55 0 55 0 2 -269z m-441 164 c9 -27 71 -209 138 -403 l120
-353 -56 3 -56 3 -42 125 -42 125 -145 3 -145 3 -42 -131 -42 -130 -54 0 -54
0 137 405 137 406 64 -3 64 -3 18 -50z m1968 -181 c40 -11 51 -19 47 -31 -3
-8 -9 -26 -12 -39 -3 -13 -7 -24 -8 -24 0 0 -19 7 -41 15 -82 29 -168 10 -181
-41 -12 -48 10 -72 103 -115 49 -22 100 -52 115 -66 36 -34 52 -85 44 -135
-15 -94 -86 -141 -211 -142 -85 -1 -178 25 -170 47 3 7 9 24 14 39 l10 26 53
-20 c75 -28 152 -21 185 16 29 34 30 76 1 103 -13 12 -62 39 -109 61 -47 21
-95 51 -106 66 -48 60 -41 138 16 195 59 59 150 75 250 45z m670 0 c40 -11 51
-19 47 -31 -3 -8 -9 -26 -12 -39 -3 -13 -7 -24 -8 -24 0 0 -19 7 -41 15 -82
29 -168 10 -181 -41 -12 -48 10 -72 103 -115 49 -22 100 -52 115 -66 36 -34
52 -85 44 -135 -15 -94 -86 -141 -211 -142 -85 -1 -178 25 -170 47 3 7 9 24
14 39 l10 26 53 -20 c75 -28 152 -21 185 16 29 34 30 76 1 103 -13 12 -62 39
-109 61 -47 21 -95 51 -106 66 -48 60 -41 138 16 195 59 59 150 75 250 45z
m-1689 -181 c0 -104 5 -204 10 -224 30 -107 181 -120 247 -20 22 32 23 43 23
232 l0 199 55 0 55 0 0 -290 0 -290 -45 0 c-42 0 -45 2 -46 28 0 15 -4 36 -8
47 -8 19 -8 19 -20 -2 -16 -32 -90 -72 -144 -79 -95 -13 -171 28 -211 115 -19
41 -21 68 -24 259 l-4 212 56 0 56 0 0 -187z m630 -103 l0 -290 -55 0 -55 0 0
290 0 290 55 0 55 0 0 -290z m660 0 l0 -290 -55 0 -55 0 0 290 0 290 55 0 55
0 0 -290z m670 0 l0 -290 -55 0 -55 0 0 290 0 290 55 0 55 0 0 -290z"/>
<path d="M30355 7544 c-4 -22 -29 -106 -57 -187 -28 -81 -48 -150 -45 -153 2
-3 56 -3 119 -2 l114 3 -62 189 c-58 178 -62 186 -69 150z"/>
<path d="M9830 6640 c-361 -50 -642 -184 -874 -416 -50 -50 -116 -125 -146
-168 -47 -66 -56 -74 -59 -54 -2 13 -13 145 -25 293 l-21 270 -428 3 -428 2 6
-82 c20 -285 25 -909 25 -2970 l0 -2308 485 0 485 0 2 989 3 990 62 -79 c166
-208 436 -352 763 -407 140 -23 392 -21 544 6 719 127 1235 667 1396 1460 53
262 64 677 25 931 -125 814 -597 1374 -1285 1525 -88 19 -428 29 -530 15z
m193 -800 c296 -99 512 -357 607 -724 43 -170 53 -279 47 -509 -6 -218 -22
-318 -77 -491 -116 -361 -360 -595 -695 -667 -96 -20 -295 -16 -390 10 -299
80 -524 297 -618 596 -41 131 -49 244 -45 640 4 354 5 362 31 458 61 220 122
334 250 465 237 242 577 326 890 222z"/>
<path d="M13605 6638 c-137 -14 -326 -54 -460 -99 -794 -265 -1255 -962 -1255
-1900 0 -966 525 -1681 1390 -1893 159 -38 320 -56 518 -56 259 0 452 28 667
97 725 233 1175 796 1276 1598 16 129 17 493 1 615 -49 369 -176 697 -371 955
-104 139 -295 314 -444 408 -352 224 -835 324 -1322 275z m486 -737 c362 -118
604 -499 659 -1040 32 -324 -27 -695 -152 -945 -96 -192 -250 -359 -407 -440
-124 -64 -218 -87 -356 -88 -392 -2 -698 243 -853 683 -69 195 -97 405 -89
659 14 430 138 765 365 982 92 88 187 147 294 182 112 38 168 45 313 42 114
-3 142 -7 226 -35z"/>
<path d="M16220 4665 l0 -1905 490 0 490 0 0 1905 0 1905 -490 0 -490 0 0
-1905z"/>
</g>
</svg>
